<svg width="90" height="90" viewBox="0 0 90 90" fill="none" xmlns="http://www.w3.org/2000/svg">
<mask id="mask0_1_4" style="mask-type:luminance" maskUnits="userSpaceOnUse" x="13" y="15" width="64" height="60">
<path d="M13.3369 15.4847H76.6969V74.16H13.3369V15.4847Z" fill="white"/>
</mask>
<g mask="url(#mask0_1_4)">
<path d="M76.635 15.4875L64.4587 17.8641L68.4056 21.2897L47.6484 45.1912L36.8746 37.6125L36.689 37.4822C35.6343 36.7453 34.1709 36.9187 33.3215 37.92L13.3715 61.4259L13.7334 61.7878L35.4318 43.3716L46.5065 51.1622C47.654 51.9628 49.2543 51.7922 50.1918 50.7122L72.5896 24.9206L75.9975 27.8775L76.635 15.4875ZM63.9618 38.8519V74.145H73.1962V28.2178L63.9618 38.8519ZM52.7718 74.145H62.0062V41.1037L52.7718 51.7378V74.145ZM41.5818 50.6944V74.145H50.8162V53.9887L49.0912 55.9753L41.5818 50.6944ZM30.3918 50.6747V74.145H39.6262V49.319L35.5471 46.4503L30.3918 50.6747ZM28.4362 52.2778V74.145H19.2018V59.8462L28.4362 52.2778Z" fill="white"/>
</g>
<path d="M50.3048 34.5155C51.2723 35.318 51.7448 36.2995 51.7223 37.4592C51.7017 38.617 51.1757 39.8161 50.1435 41.0555C49.1929 42.2011 48.1382 43.0317 46.9785 43.5492L44.871 41.798C45.7917 41.3433 46.5248 40.9195 47.0723 40.5267C47.6217 40.1348 48.0698 39.7308 48.4148 39.3155C48.8292 38.8186 49.0523 38.3583 49.0823 37.9355C49.1123 37.5108 48.9398 37.1423 48.5648 36.8292C48.3548 36.6548 48.1185 36.5583 47.856 36.5405C47.5954 36.5208 47.2945 36.562 46.9523 36.6642C46.6129 36.7673 45.9867 37.028 45.0735 37.448C44.2242 37.8483 43.521 38.0948 42.966 38.1867C42.4092 38.2767 41.8617 38.2636 41.3235 38.1455C40.7864 38.0283 40.2651 37.7611 39.7598 37.343C38.8129 36.5555 38.3348 35.6161 38.3273 34.523C38.3198 33.428 38.7876 32.3142 39.7298 31.1817C40.1929 30.6267 40.7001 30.1523 41.2523 29.7567C41.8054 29.3592 42.4298 28.9842 43.1273 28.6317L44.286 30.833C43.5764 31.208 43.0204 31.5445 42.6173 31.8417C42.2123 32.1398 41.8598 32.4698 41.5598 32.8317C41.2026 33.2592 41.0292 33.6717 41.0385 34.0692C41.0489 34.4648 41.2148 34.7958 41.5373 35.063C41.7379 35.228 41.9498 35.3273 42.1748 35.3592C42.3998 35.392 42.6679 35.3648 42.9773 35.2767C43.2848 35.1895 43.9335 34.9167 44.9235 34.4592C46.236 33.8573 47.286 33.5705 48.0735 33.6005C48.861 33.6286 49.6045 33.9333 50.3048 34.5155Z" fill="white"/>
<path d="M49.7007 23.0346C48.991 23.8896 48.7632 24.8187 49.0182 25.8208C49.2713 26.824 49.9707 27.8008 51.1182 28.7533C53.506 30.739 55.4429 30.8346 56.9307 29.0421C57.555 28.2921 58.125 27.2262 58.6407 25.8433L60.5419 27.4258C60.1791 28.6137 59.5463 29.749 58.6444 30.8308C57.3488 32.389 55.8854 33.1877 54.2532 33.2271C52.6238 33.2674 50.925 32.5521 49.1569 31.0821C48.045 30.1577 47.2388 29.1433 46.7382 28.0408C46.2357 26.9383 46.0772 25.8227 46.2619 24.6921C46.4475 23.5596 46.9632 22.4824 47.8107 21.4596C48.676 20.4199 49.7963 19.5865 51.1707 18.9583L52.4082 21.2233C51.886 21.4662 51.3863 21.7315 50.9082 22.0183C50.4282 22.3062 50.026 22.6446 49.7007 23.0346Z" fill="white"/>
<path d="M64.6982 23.2508L62.842 25.4858L52.132 16.5833L57.2357 10.4446L59.0957 11.9896L55.8482 15.8933L58.612 18.1921L61.6307 14.5583L63.4832 16.0996L60.4645 19.7333L64.6982 23.2508Z" fill="white"/>
</svg>
