<svg width="20" height="20" viewBox="0 0 20 20" fill="none" xmlns="http://www.w3.org/2000/svg">
<path fill-rule="evenodd" clip-rule="evenodd" d="M18.75 2.5C18.75 2.16848 18.6183 1.85054 18.3839 1.61612C18.1495 1.3817 17.8315 1.25 17.5 1.25H2.5C2.16848 1.25 1.85054 1.3817 1.61612 1.61612C1.3817 1.85054 1.25 2.16848 1.25 2.5V17.5C1.25 17.8315 1.3817 18.1495 1.61612 18.3839C1.85054 18.6183 2.16848 18.75 2.5 18.75H17.5C17.8315 18.75 18.1495 18.6183 18.3839 18.3839C18.6183 18.1495 18.75 17.8315 18.75 17.5V2.5ZM0 2.5C0 1.83696 0.263392 1.20107 0.732233 0.732233C1.20107 0.263392 1.83696 0 2.5 0L17.5 0C18.163 0 18.7989 0.263392 19.2678 0.732233C19.7366 1.20107 20 1.83696 20 2.5V17.5C20 18.163 19.7366 18.7989 19.2678 19.2678C18.7989 19.7366 18.163 20 17.5 20H2.5C1.83696 20 1.20107 19.7366 0.732233 19.2678C0.263392 18.7989 0 18.163 0 17.5V2.5ZM10.625 5.625C10.625 5.45924 10.5592 5.30027 10.4419 5.18306C10.3247 5.06585 10.1658 5 10 5C9.83424 5 9.67527 5.06585 9.55806 5.18306C9.44085 5.30027 9.375 5.45924 9.375 5.625V12.8663L6.6925 10.1825C6.57514 10.0651 6.41597 9.99921 6.25 9.99921C6.08403 9.99921 5.92486 10.0651 5.8075 10.1825C5.69014 10.2999 5.62421 10.459 5.62421 10.625C5.62421 10.791 5.69014 10.9501 5.8075 11.0675L9.5575 14.8175C9.61556 14.8757 9.68453 14.9219 9.76046 14.9534C9.83639 14.9849 9.91779 15.0011 10 15.0011C10.0822 15.0011 10.1636 14.9849 10.2395 14.9534C10.3155 14.9219 10.3844 14.8757 10.4425 14.8175L14.1925 11.0675C14.3099 10.9501 14.3758 10.791 14.3758 10.625C14.3758 10.459 14.3099 10.2999 14.1925 10.1825C14.0751 10.0651 13.916 9.99921 13.75 9.99921C13.584 9.99921 13.4249 10.0651 13.3075 10.1825L10.625 12.8663V5.625Z" fill="black"/>
</svg>
